<?xml version="1.0" ?><!DOCTYPE svg  PUBLIC '-//W3C//DTD SVG 1.1//EN'  'http://www.w3.org/Graphics/SVG/1.1/DTD/svg11.dtd'><svg height="512px" style="enable-background:new 0 0 512 512;" version="1.1" viewBox="0 0 512 512" width="512px" xml:space="preserve" xmlns="http://www.w3.org/2000/svg" xmlns:xlink="http://www.w3.org/1999/xlink"><g id="_x32_18_x2C__delivery_x2C__time_x2C__shipping_x2C__transport_x2C__truck"><g><path d="M347.166,252.033v96.921h52.236h44.507l-1.26-21.435l-6.549-5.969h-0.326    h-64.003c-1.685,0-3.096-1.386-3.096-3.098v-44.785c0-1.712,1.411-3.098,3.096-3.098c1.713,0,3.099,1.386,3.099,3.098v41.687    h57.353l-20.25-63.321H347.166z M183.42,378.373c0.607-5.441,2.52-10.504,5.443-14.836l0.049-0.024    c0.379-0.58,0.779-1.134,1.207-1.688l0.154-0.201l0.074-0.076l0.428-0.553l0,0l0.228-0.252l0.225-0.277l0.053-0.076l0.176-0.176    l0.225-0.252l0.126-0.15l0.102-0.127l0.175-0.176l0.077-0.076l0.2-0.201l0.024-0.051l0.253-0.252l0,0l0.228-0.227l0.049-0.05    l0.203-0.202l0.049-0.05l0.024-0.025l0.049-0.024l0.053-0.076l0.049-0.051l0.049-0.05l0.077-0.051v-0.025l0.049-0.05l0.053-0.051    l0.049-0.051l0.077-0.05l0.049-0.051l0.024-0.024l0.025-0.025l0.077-0.076l0.049-0.051l0.053-0.049l0.074-0.051l0,0l0.049-0.051    l0.077-0.05l0.049-0.052l0.053-0.049l0.074-0.076l0.053-0.051l0.049-0.05l0.074-0.05l0.052-0.051l0.049-0.051h0.024l0.053-0.051    l0.049-0.05l0.077-0.051l0.049-0.05l0.049-0.051l0.024-0.025l0.053-0.025l0.049-0.05l0.077-0.051l0.225-0.2l0.077-0.052    l0.049-0.05l0.126-0.102l0.078-0.049l0.628-0.504l0.049-0.051l0.656-0.479h-35.439v23.223H183.42z M366.584,378.373    c0.832-7.683,4.307-14.559,9.469-19.722c1.26-1.284,2.646-2.444,4.106-3.501h-36.019h-0.073h-0.102H235.508    c1.464,1.057,2.822,2.217,4.082,3.501c5.188,5.163,8.641,12.039,9.497,19.722H366.584z M427.688,364.974    c0.428,0.704,0.831,1.409,1.183,2.141l0.126,0.227l0.053,0.101l0.429,0.957l0.024,0.025c1.41,3.099,2.341,6.448,2.72,9.949h15.589    l5.945-23.223h-6.472h-0.102h-28.536l0.05,0.05l0.073,0.05l0.053,0.051l0,0l0.151,0.102l0.049,0.05l0.126,0.075l0,0l0.127,0.102    l0.077,0.051l0.049,0.05l0.049,0.025l0.025,0.024l0.052,0.051l0.074,0.051l0.126,0.101l0.053,0.025v0.024l0.074,0.051l0.228,0.177    h0.024l0.05,0.075l0.077,0.025l0.049,0.05l0.077,0.05l0.024,0.051l0.024,0.025l0.077,0.051l0.05,0.05l0.049,0.051l0.077,0.05    l0.024,0.025l0.024,0.025l0.078,0.051l0.049,0.05l0.049,0.051l0.102,0.075l0.025,0.025l0.077,0.051l0.049,0.051l0.049,0.05    l0.077,0.05l0.024,0.051h0.025l0.052,0.051l0.074,0.074l0.102,0.102l0.049,0.025l0.078,0.076l0.049,0.049l0.077,0.051l0.049,0.051    l0.024,0.051l0.025,0.024l0.077,0.051l0.049,0.05l0.053,0.051l0.073,0.051l0.024,0.05l0.028,0.025l0.049,0.051l0.127,0.101    l0.049,0.051l0.024,0.025l0.028,0.05l0.049,0.05l0.2,0.202l0.053,0.025l0.225,0.251h0.024l0.253,0.252v0.025l0.229,0.227    l0.049,0.076l0.176,0.176l0.102,0.102l0.15,0.176l0.103,0.125l0.126,0.127l0.151,0.176l0.073,0.076l0.179,0.227l0.05,0.051    l0.428,0.529l0.024,0.023l0.2,0.252l0.053,0.076l0.151,0.201l0.102,0.102l0.126,0.176l0.099,0.151l0.102,0.126l0.15,0.177    l0.05,0.101l0.179,0.227l0.024,0.05l0.2,0.277v0.025l0.203,0.277l0.025,0.024l0.175,0.252l0.05,0.076l0.126,0.227l0.077,0.101    l0.126,0.201l0.099,0.151l0.077,0.126l0.126,0.202L427.688,364.974z M237.575,172.869c0.881,4.055,1.46,8.211,1.712,12.442v0.177    l0.049,0.83v0.177l0.024,0.151v0.176v0.102v0.051v0.176l0.028,0.177v0.151v0.176v0.176v0.102v0.05v0.177l0.024,0.15v0.176v0.178    v0.15v0.152v0.023v0.151v0.177v0.176v0.152v0.176v0.176l0,0v1.008l0,0l-0.024,1.033l0,0l-0.028,1.007v0.025l-0.049,1.007l0,0    l-0.049,1.008l0,0l-0.077,1.008l0,0l-0.074,1.008l0,0l-0.102,1.007l0,0l-0.102,1.008l0,0l-0.126,0.981v0.025l-0.126,0.983l0,0    l-0.151,0.981l0,0l-0.151,0.982l0,0l-0.176,0.982l0,0l-0.175,0.982l0,0l-0.204,0.957l0,0l-0.2,0.982l0,0l-0.228,0.957l0,0    l-0.225,0.957l0,0l-0.228,0.957l0,0l-0.253,0.957l0,0l-0.249,0.932l0,0l-0.277,0.957l0,0l-0.302,0.933l0,0l-0.277,0.932l0,0    l-0.33,0.933l0,0l-0.302,0.906l0,0l-0.327,0.907v0.024l-0.354,0.907l0,0l-0.351,0.906l0,0l-0.354,0.882l0,0l-0.376,0.907l0,0    l-0.379,0.881l0,0l-0.403,0.882l0,0l-0.404,0.882l0,0l-0.4,0.882l-0.428,0.856l0,0l-0.428,0.856l-0.456,0.855l0,0l-0.453,0.857    l0,0l-0.453,0.83l0,0l-0.477,0.832l-0.481,0.831l-0.502,0.831l-0.505,0.806l-0.502,0.807l0,0l-0.53,0.806l-0.53,0.807l-0.526,0.78    l-0.555,0.78l-0.555,0.781l-0.579,0.756l-0.579,0.781l0,0l-0.579,0.755l-0.579,0.73l-0.607,0.756l0,0l-0.628,0.729l-0.604,0.705    l-0.632,0.731l-0.628,0.704l-0.656,0.706l-0.653,0.705l-0.656,0.681l-0.681,0.68c-14.382,14.357-34.253,23.273-56.19,23.273    h-0.404h-0.404h-0.228h-0.175l-0.404-0.025h-0.403h-0.049l-0.326-0.025h-0.404h-0.277l-0.126-0.025h-0.404l-0.404-0.025h-0.073    l-0.302-0.024l-0.403-0.025l-0.327-0.025h-0.077l-0.403-0.024l-0.375-0.025h-0.151l-0.253-0.025l-0.379-0.025l-0.379-0.051h-0.025    l-0.403-0.025l-0.375-0.05l-0.404-0.025l-0.379-0.05l-0.404-0.051l0,0l-0.375-0.051l-0.403-0.049l-0.228-0.025h-0.151l-0.4-0.052    l-0.758-0.126l-0.404-0.051l-0.754-0.125l-0.404-0.051l-0.098-0.024l-0.277-0.051l-0.379-0.05    c-10.149-1.789-19.646-5.491-28.083-10.73v63.17H306.06c1.712,0,3.099,1.385,3.099,3.098c0,1.688-1.387,3.074-3.099,3.074H118.112    v22.063h40.299h57.83h124.728V248.859v-75.99h-10.202v109.465c0,1.712-1.383,3.098-3.096,3.098c-1.712,0-3.099-1.386-3.099-3.098    V172.869H237.575z M116.701,249.162h0.025l0.024,0.025l0.024,0.024l0.025,0.025l0.053,0.025h0.024l0.024,0.024    c8.261,6.02,17.86,10.352,28.234,12.493h0.053l0.302,0.051l1.386,0.277l0.098,0.024l0.253,0.025l0.656,0.127h0.074l0.706,0.125    h0.126l0.909,0.15h0.024l0.375,0.051l0.354,0.051l0.151,0.025l0.2,0.025l0.73,0.075l0,0l0.354,0.05l0.579,0.051l0.126,0.025    l0.379,0.025l0.351,0.025l0.049,0.024l0.33,0.025l0.351,0.025l0.252,0.024h0.126l0.351,0.025l0.379,0.025h0.074l0.277,0.025    l0.379,0.025h0.277h0.077l0.375,0.025l0.354,0.025h0.126h0.249l0.379,0.024h0.326h0.025h0.379l0.379,0.025h0.151h0.2h0.379h0.379    c20.225,0,38.559-8.212,51.807-21.46l0.632-0.63l0.604-0.629l0.604-0.655l0.607-0.629l0.579-0.656l0.579-0.654l0.555-0.68    l0.579-0.68l0.554-0.68l0.551-0.682l0.53-0.705l0.53-0.705l0.53-0.705l0.526-0.705l0.505-0.73l0.477-0.73l0.505-0.73l0.478-0.73    l0.477-0.756l0.457-0.755l0.453-0.757l0.453-0.755l0.428-0.781l0.428-0.78l0,0l0.428-0.781l0.403-0.781l0.404-0.779l0.375-0.807    l0.403-0.807l0.354-0.805l0.375-0.807l0.354-0.831l0.327-0.831l0,0l0.354-0.832l0.302-0.83l0.326-0.832l0.302-0.856l0.277-0.831    l0,0l0.302-0.855l0.277-0.857l0.253-0.881l0.252-0.856l0.249-0.882l0,0l0.229-0.856l0.228-0.882l0.2-0.882l0.2-0.906l0.179-0.882    l0.175-0.906l0.176-0.882v-0.025l0.151-0.882l0,0l0.151-0.906l0.126-0.932l0,0l0.126-0.907l0,0l0.102-0.906l0.102-0.932l0,0    l0.098-0.933l0,0l0.077-0.932l0,0l0.049-0.932l0,0l0.077-0.932l0,0l0.024-0.933l0,0l0.025-0.932l0,0l0.024-0.957l0,0v-0.933l0,0    v-0.176v-0.152v-0.326v-0.151v-0.151l0,0v-0.151v-0.151v-0.176v-0.453h-0.024v-0.328v-0.15v-0.302l-0.025-0.151v-0.025v-0.151    l-0.024-0.604v-0.151v-0.025c-0.958-18.739-8.942-35.614-21.387-48.058c-10.753-10.754-24.833-18.186-40.577-20.604h-0.074    l-0.024-0.023l-1.614-0.229h-0.098h-0.102v-0.023h-0.077l-0.098-0.025h-0.102l-0.477-0.051l-0.102-0.025h-0.049h-0.053    l-0.098-0.025l-0.758-0.075h-0.024h-0.074l-0.379-0.051h-0.102h-0.102l-0.098-0.024h-0.102h-0.049h-0.025l-0.102-0.025h-0.102    h-0.102l-0.098-0.025h-0.102h-0.077l-0.098-0.025h-0.102h-0.102h-0.024l-0.074-0.025h-0.102h-0.102h-0.102l-0.074-0.025h-0.102    h-0.2l-0.102-0.025h-0.074h-0.028l-0.4-0.024h-0.077h-0.102l-0.099-0.025h-0.102h-0.102h-0.025h-0.074h-0.102l-0.102-0.025h-0.102    h-0.098h-0.102l-0.302-0.024h-0.077h-0.024h-0.074h-0.404l-0.102-0.025h-0.102h-0.2h-0.025h-0.077h-0.403h-0.099h-0.102    l-0.102-0.025h-0.099h-0.052h-0.049h-0.102h-0.102h-0.098h-0.204h-0.098h-0.102h-0.102h-0.098h-0.102h-0.102h-0.102h-0.098h-0.204    h-0.098h-0.102h-0.102h-0.049h-0.052h-0.099l-0.102,0.025h-0.102h-0.098h-0.102h-0.102h-0.2h-0.078h-0.024h-0.2h-0.102    l-0.102,0.025h-0.375h-0.126h-0.024h-0.053l-0.302,0.024h-0.102h-0.098h-0.102l-0.102,0.025h-0.098h-0.077h-0.025h-0.102h-0.102    l-0.073,0.025h-0.102h-0.102h-0.099h-0.102l-0.2,0.024h-0.028h-0.074l-0.102,0.025h-0.074h-0.102h-0.102l-0.099,0.025h-0.102    h-0.102h-0.102l-0.074,0.025h-0.024h-0.077h-0.102l-0.098,0.025h-0.102H153.8l-0.098,0.025h-0.077h-0.151l-0.102,0.025l0,0h-0.098    h-0.102l-0.102,0.024h-0.074h-0.102l-0.102,0.025h-0.098l-0.102,0.025h-0.102h-0.024h-0.077l-0.098,0.025l-0.379,0.024    l-0.102,0.025h-0.098l-0.102,0.025h-0.077l0,0l-0.098,0.025h-0.102h-0.102l-0.098,0.025l-0.204,0.025h-0.074l-0.102,0.025h-0.102    l-0.049,0.023h-0.049h-0.102l-0.077,0.026h-0.098l-0.102,0.025h-0.102l-0.102,0.024l-0.478,0.051l-0.102,0.025l-0.375,0.051    l-0.102,0.025h-0.077l-0.049,0.023h-0.049l-0.102,0.025h-0.102l-0.098,0.025l-0.457,0.076h-0.098l0,0    c-15.389,2.568-29.192,9.924-39.745,20.477c-13.276,13.274-21.46,31.586-21.46,51.836c0,20.227,8.184,38.537,21.46,51.811    C110.78,244.451,113.651,246.92,116.701,249.162z M149.897,111.135c2.039-0.252,4.106-0.428,6.169-0.529h0.126h0.102l0.102-0.025    h0.098h0.126h0.102h0.102h0.049h0.074l0.102-0.024h0.102h0.102h0.123h0.102h0.102h0.102l0.123-0.025h0.077h0.024h0.102h0.102    h0.123h0.102h0.102h0.102h0.123h0.102h0.102h0.049h0.077l0.102-0.025h0.098h0.102h0.126h0.102h0.098h0.102h0.126h0.102h0.098    h0.102h0.126h0.102h0.099h0.102h0.126h0.102l0.099,0.025h0.077h0.049h0.102h0.102h0.098h0.126h0.102h0.102h0.098h0.126h0.102l0,0    h0.102l0.098,0.025h0.126h0.102h0.102h0.098h0.126h0.102l0.102,0.024h0.074h0.049h0.102h0.102h0.102h0.123l0.102,0.025h0.102    h0.102l1.611,0.102h0.126h0.102c1.46,0.125,2.92,0.252,4.355,0.428v-10.932h-20.099V111.135z M146.725,94.008h0.074h26.297h0.074    h4.762v-7.557h-35.969v7.557H146.725z M160.728,128.916c-0.2-0.176-0.477-0.301-0.779-0.301c-0.306,0-0.583,0.125-0.783,0.301    c-0.2,0.202-0.302,0.479-0.302,0.781c0,0.303,0.102,0.604,0.302,0.781c0.2,0.201,0.477,0.328,0.783,0.328    c0.302,0,0.579-0.127,0.779-0.303c0.2-0.202,0.302-0.504,0.302-0.807C161.029,129.396,160.928,129.118,160.728,128.916z     M159.949,122.419c1.986,0,3.801,0.806,5.138,2.141c1.333,1.335,2.141,3.147,2.141,5.138s-0.807,3.829-2.141,5.139    c-1.337,1.335-3.151,2.166-5.138,2.166c-1.99,0-3.829-0.831-5.142-2.141c-1.333-1.335-2.141-3.174-2.141-5.164    s0.807-3.803,2.116-5.138C156.12,123.225,157.958,122.419,159.949,122.419z M221,190.777c0.203-0.201,0.33-0.479,0.33-0.781    c0-0.328-0.126-0.604-0.33-0.78c-0.2-0.202-0.478-0.328-0.779-0.328s-0.579,0.126-0.754,0.303c-0.204,0.202-0.33,0.478-0.33,0.806    c0,0.303,0.126,0.58,0.302,0.756c0.204,0.201,0.481,0.328,0.783,0.328S220.8,190.953,221,190.777z M227.5,189.996    c0,1.99-0.807,3.803-2.116,5.139c-1.334,1.334-3.173,2.141-5.163,2.141s-3.804-0.807-5.138-2.141    c-1.337-1.336-2.141-3.148-2.141-5.139c0-2.015,0.804-3.828,2.141-5.139c1.334-1.334,3.148-2.166,5.138-2.166    s3.829,0.832,5.138,2.141C226.692,186.168,227.5,187.981,227.5,189.996z M159.166,251.051c0.2,0.176,0.477,0.302,0.783,0.302    c0.302,0,0.579-0.126,0.779-0.302c0.2-0.201,0.302-0.479,0.302-0.781s-0.102-0.578-0.302-0.781    c-0.2-0.201-0.477-0.326-0.779-0.326c-0.306,0-0.583,0.125-0.783,0.326c-0.2,0.203-0.302,0.479-0.302,0.781    S158.966,250.85,159.166,251.051z M159.949,257.549c-1.99,0-3.829-0.806-5.142-2.141c-1.333-1.335-2.141-3.148-2.141-5.139    c0-2.016,0.807-3.828,2.116-5.138c1.337-1.335,3.176-2.142,5.166-2.142c1.986,0,3.801,0.807,5.138,2.116    c1.333,1.335,2.141,3.147,2.141,5.163c0,1.99-0.807,3.804-2.141,5.139C163.75,256.743,161.935,257.549,159.949,257.549z     M98.894,189.216c-0.204,0.177-0.33,0.452-0.33,0.78c0,0.303,0.126,0.58,0.33,0.756c0.2,0.201,0.478,0.328,0.779,0.328    s0.579-0.127,0.754-0.303c0.204-0.201,0.33-0.504,0.33-0.781c0-0.302-0.126-0.604-0.302-0.78    c-0.204-0.202-0.481-0.328-0.783-0.328S99.094,189.014,98.894,189.216z M92.394,189.996c0-2.015,0.807-3.828,2.116-5.139    c1.333-1.334,3.148-2.166,5.163-2.166c1.99,0,3.804,0.832,5.138,2.141c1.337,1.336,2.141,3.175,2.141,5.164    c0,1.99-0.832,3.803-2.141,5.139c-1.333,1.311-3.148,2.141-5.138,2.141s-3.829-0.807-5.138-2.141    C93.201,193.799,92.394,191.986,92.394,189.996z M406.684,374.721c-1.867-1.864-4.436-3.021-7.281-3.021    c-2.847,0-5.416,1.157-7.279,2.996c-1.863,1.889-2.997,4.459-2.997,7.305c0,2.82,1.158,5.39,2.997,7.254    c1.863,1.863,4.433,3.022,7.279,3.022c2.846,0,5.414-1.159,7.281-3.022c1.864-1.839,2.997-4.434,2.997-7.254    c0-2.771-1.084-5.29-2.846-7.153L406.684,374.721z M399.402,365.502c4.559,0,8.664,1.864,11.661,4.836l0.18,0.176    c2.87,2.973,4.632,7.028,4.632,11.486c0,4.533-1.839,8.639-4.812,11.611c-2.997,2.996-7.103,4.861-11.661,4.861    c-4.531,0-8.662-1.865-11.635-4.836c-2.997-2.973-4.836-7.104-4.836-11.637c0-4.559,1.839-8.664,4.812-11.662    C390.74,367.366,394.871,365.502,399.402,365.502z M223.52,374.721c-1.863-1.864-4.433-3.021-7.279-3.021    c-2.821,0-5.415,1.157-7.254,3.021c-1.864,1.838-3.022,4.434-3.022,7.279c0,2.745,1.109,5.264,2.871,7.127l0.151,0.127    c1.839,1.863,4.433,3.022,7.254,3.022c2.846,0,5.416-1.159,7.279-2.997c1.864-1.89,3.022-4.459,3.022-7.279    c0-2.771-1.109-5.29-2.871-7.153L223.52,374.721z M216.241,365.502c4.559,0,8.689,1.864,11.662,4.836l0.176,0.176    c2.871,2.973,4.661,7.028,4.661,11.486c0,4.533-1.864,8.639-4.836,11.611c-2.997,2.996-7.127,4.861-11.662,4.861    c-4.534,0-8.665-1.865-11.637-4.836l-0.176-0.202c-2.871-2.946-4.661-7.001-4.661-11.435c0-4.559,1.864-8.664,4.836-11.662    C207.576,367.366,211.707,365.502,216.241,365.502z M305.126,260.975h-74.177v32.92h74.177V260.975z M131.006,170.754    c-1.334-1.084-1.538-3.023-0.478-4.333c1.057-1.335,2.997-1.562,4.331-0.478l26.146,20.955h33.4c1.712,0,3.095,1.385,3.095,3.098    c0,1.688-1.383,3.099-3.095,3.099h-34.456c-0.681-0.025-1.362-0.253-1.941-0.705L131.006,170.754z M68.417,265.987    c-1.712,0-3.099-1.386-3.099-3.099c0-1.688,1.386-3.099,3.099-3.099h34c1.712,0,3.099,1.411,3.099,3.099    c0,1.713-1.386,3.099-3.099,3.099H68.417z M29.097,296.035c-1.712,0-3.095-1.385-3.095-3.098s1.383-3.098,3.095-3.098h62.29    c1.688,0,3.099,1.385,3.099,3.098s-1.411,3.098-3.099,3.098H29.097z M89.246,413.132c-1.712,0-3.099-1.386-3.099-3.099    c0-1.712,1.387-3.098,3.099-3.098h117.147c-3.45-1.36-6.548-3.4-9.118-5.995c-4.836-4.836-7.857-11.536-7.857-18.94    c0-3.955,0.856-7.683,2.365-11.058l0,0l0.151-0.302l0,0l0.277-0.579l0,0l0.277-0.58h0.024l0.151-0.276v-0.025l0.151-0.252v-0.025    l0.151-0.252v-0.025l0.154-0.252l0.025-0.025l0.151-0.252l0.024-0.024l0.151-0.251v-0.025l0.151-0.252l0.024-0.025l0.151-0.227    l0.024-0.051l0.154-0.227l0.024-0.051l0.176-0.227l0.024-0.025l0.151-0.227l0.024-0.05l0.151-0.202l0.028-0.05l0.175-0.202    l0.025-0.05l0.151-0.228l0.049-0.05l0.151-0.202l0.053-0.049l0.151-0.178l0.049-0.074l0.151-0.177l0.053-0.075l0.151-0.177    l0.049-0.051l0.151-0.202l0.052-0.05l0.176-0.177l0.049-0.075l0.151-0.177l0.053-0.049l0.176-0.177l0.049-0.075l0.151-0.152    l0.077-0.075l0.151-0.151l0.049-0.075l0.175-0.177l0.053-0.051l0.176-0.15l0.049-0.076l0.179-0.15l0.074-0.075l0.151-0.151    l0.077-0.076l0.151-0.15l0.074-0.051l0.175-0.151l0.077-0.075l0.151-0.126l0.077-0.075l0.175-0.127l0.225-0.226l0.102-0.075    l0.151-0.127l0.102-0.075l0.151-0.126l0.102-0.076l0.151-0.101l0.098-0.101l0.154-0.101l0.098-0.075l0.151-0.127l0.102-0.075    l0.151-0.101l0.126-0.076l0.151-0.1l0.252-0.201l0.126-0.076l0.151-0.101l0.098-0.075l0.151-0.102l0.126-0.075l0.151-0.076    l0.53-0.353l0.151-0.076l0.126-0.075l0.151-0.101l0.126-0.076l0.151-0.074l0.126-0.076l0.175-0.075l0.126-0.075l0.151-0.076    l0.126-0.075l0.151-0.076l0.126-0.075l0.175-0.076l0.126-0.05l0.151-0.101l0.126-0.051l0.176-0.076l0.126-0.049l0.175-0.102    l0.102-0.05l0.505-0.202l0.099-0.05l0.204-0.075l0.102-0.051l0.2-0.076l0.102-0.025l0.2-0.101l0.102-0.024l0.2-0.076l0.102-0.051    l0.2-0.05l0.102-0.051l0.229-0.075l0.074-0.025l0.228-0.076l0.098-0.023l0.204-0.076l0.102-0.025l0.225-0.075l0.077-0.026    l0.25-0.049l0.077-0.025l0.228-0.076h0.074l0.252-0.075l0.074-0.025l0.253-0.05l0.077-0.025l0.249-0.051l0.053-0.025l0.277-0.051    l0.049-0.024l0.277-0.051h0.049l0.277-0.075h0.053l0.277-0.051h0.049l0.277-0.051l0.049-0.024l0.277-0.025l0.053-0.025    l0.277-0.025h0.049l0.302-0.05h0.024l0.302-0.051h0.028l0.302-0.025h0.049l0.302-0.025l0.025-0.025l0.302-0.024h0.028h0.327h0.024    l0.327-0.025l0,0l0.33-0.025h0.025h0.326l0,0h0.354l0,0l0.326-0.024l0.351,0.024l0,0h0.354l0,0h0.326h0.025l0.33,0.025l0,0    l0.327,0.025h0.024h0.327l0,0l0.33,0.024l0.025,0.025l0.302,0.025h0.024l0.302,0.025h0.053l0.302,0.051h0.024l0.302,0.05h0.025    l0.302,0.025l0.053,0.025l0.277,0.025l0.049,0.024l0.277,0.051H221l0.277,0.051h0.053l0.277,0.075h0.049l0.277,0.051l0.049,0.024    l0.253,0.051l0.077,0.025l0.249,0.051l0.077,0.025l0.253,0.05l0.073,0.025l0.229,0.075h0.074l0,0l0.579,0.15l0.077,0.026    l0.225,0.075l0.077,0.025c0.604,0.176,1.183,0.402,1.762,0.629l0.102,0.025c3.45,1.36,6.549,3.426,9.143,5.994    c4.836,4.861,7.861,11.562,7.861,18.992c0,7.404-3.025,14.104-7.861,18.966c-2.569,2.569-5.665,4.609-9.093,5.97h163.392    c-3.449-1.36-6.549-3.4-9.117-5.995c-4.836-4.836-7.834-11.536-7.834-18.94v-0.302v-0.052v-0.025v-0.074v-0.076v-0.05    c0.151-7.179,3.124-13.678,7.858-18.413c2.821-2.795,6.222-4.986,10.052-6.321l0.102-0.051l0.828-0.276l0.076-0.025l0.254-0.075    l0.627-0.177h0.078l0.249-0.075l0.077-0.025l0.253-0.05l0.049-0.025l0.253-0.051l0.073-0.025l0.253-0.051l0.077-0.024l0.249-0.051    h0.053l0.629-0.126h0.023l0.303-0.051l0.027-0.024l0.303-0.025l0.023-0.025l0.303-0.025h0.049l0.277-0.05h0.053l0.302-0.051h0.024    l0.302-0.025h0.024l0.33-0.025v-0.025l0.326-0.024h0.025h0.326l0,0l0.33-0.025h0.023l0.327-0.025l0,0h0.354l0,0h0.326l0,0    l0.352-0.024l0.354,0.024l0,0h0.326h0.025h0.33l0,0l0.326,0.025h0.024l0.326,0.025l0,0h0.33h0.024l0.302,0.024l0.024,0.025    l0.33,0.025h0.024l0.302,0.025h0.024l0.302,0.051h0.053l0.274,0.05h0.053l0.277,0.025l0.049,0.025l0.302,0.025l0.024,0.024    l0.306,0.051h0.049l0.277,0.051h0.049l0.253,0.075h0.073l0.253,0.051l0.077,0.024l0.253,0.051l0.073,0.025l0.253,0.051    l0.074,0.025l0.228,0.05l0.077,0.025l0.25,0.075h0.077l0.252,0.076l0.074,0.025l0.228,0.049l0.074,0.026l0.228,0.075l0.103,0.025    l0.225,0.076l0.077,0.023l0.225,0.076l0.102,0.025l0.2,0.075l0.102,0.051l0.229,0.05l0.073,0.051l0.229,0.076l0.102,0.024    l0.2,0.101l0.102,0.025l0.2,0.076l0.102,0.051l0.2,0.075l0.102,0.05l0.176,0.076l0.126,0.051l0.176,0.075l0.126,0.05l0.176,0.102    l0.102,0.049l0.176,0.076l0.126,0.051l0.176,0.101l0.126,0.05l0.151,0.076l0.126,0.075l0.176,0.076l0.126,0.075l0.151,0.076    l0.126,0.075l0.151,0.075l0.126,0.076l0.15,0.074l0.127,0.076l0.15,0.101l0.151,0.075l0.126,0.076l0.151,0.101l0.126,0.075    l0.151,0.076l0.126,0.101l0.127,0.076l0.126,0.075l0.15,0.102l0.127,0.075l0.15,0.101l0.127,0.076l0.126,0.1l0.126,0.102    l0.151,0.1l0.099,0.076l0.15,0.101l0.102,0.075l0.176,0.127l0.102,0.075l0.151,0.126l0.102,0.075l0.151,0.101l0.102,0.076    l0.15,0.126l0.074,0.075l0.175,0.127l0.078,0.075l0.175,0.15l0.077,0.05l0.151,0.152l0.073,0.075l0.18,0.126l0.073,0.075    l0.151,0.151l0.077,0.051l0.175,0.176l0.074,0.051l0.15,0.151l0.229,0.226l0.077,0.051l0.15,0.176l0.074,0.051l0.15,0.177    l0.053,0.05l0.176,0.177l0.049,0.051l0.176,0.2l0.028,0.026l0.2,0.202l0.024,0.023l0.176,0.228l0.027,0.024l0.2,0.202v0.025    l0.2,0.227l0.028,0.025l0.175,0.227h0.025l0.175,0.251l0,0l0.204,0.252l0,0l0.199,0.252l0,0l0.176,0.253h0.028l0.176,0.252l0,0    l0.175,0.252l0.024,0.024l0.151,0.227l0.024,0.025l0.151,0.227l0.027,0.051l0.151,0.227l0.024,0.025l0.151,0.227l0.024,0.051    l0.15,0.226l0.024,0.052l0.151,0.226l0.028,0.051l0.126,0.201l0.049,0.075l0.127,0.202l0.024,0.075l0.126,0.202l0.025,0.075    l0.126,0.201l0.049,0.076l0.102,0.201l0.05,0.101l0.102,0.177l0.049,0.101l0.077,0.202l0.05,0.101l0.102,0.177l0.049,0.1    l0.151,0.303l0.077,0.176l0.049,0.126l0.077,0.151l0.049,0.151l0.077,0.151l0.074,0.15l0.053,0.152l0.049,0.15    c1.207,2.947,1.913,6.195,1.99,9.571v0.05v0.076v0.074v0.025v0.052V382c0,7.404-2.997,14.104-7.858,18.966    c-2.568,2.569-5.643,4.609-9.093,5.97h21.082c1.712,0,3.099,1.386,3.099,3.098c0,1.713-1.387,3.099-3.099,3.099H89.246z     M249.89,425.549c-1.688,0-3.096-1.385-3.096-3.098c0-1.714,1.408-3.099,3.096-3.099h189.864c1.688,0,3.099,1.385,3.099,3.099    c0,1.713-1.41,3.098-3.099,3.098H249.89z M459.172,425.549c-1.713,0-3.096-1.385-3.096-3.098c0-1.714,1.383-3.099,3.096-3.099    h23.752c1.688,0,3.075,1.385,3.075,3.099c0,1.713-1.387,3.098-3.075,3.098H459.172z M78.44,425.171    c-1.713,0-3.099-1.385-3.099-3.098s1.386-3.099,3.099-3.099h89.969c1.688,0,3.099,1.386,3.099,3.099s-1.411,3.098-3.099,3.098    H78.44z M227.85,254.779h80.375c1.713,0,3.1,1.385,3.1,3.098v39.115c0,1.713-1.387,3.099-3.1,3.099H227.85    c-1.712,0-3.095-1.386-3.095-3.099v-39.115C224.755,256.164,226.138,254.779,227.85,254.779z" style="fill-rule:evenodd;clip-rule:evenodd;"/></g></g><g id="Layer_1"/></svg>